# AST/ASF file generated using VICON BodyLanguage
# -----------------------------------------------
:version 1.10
:name VICON
:units
  mass 1.0
  length 0.45
  angle deg
:documentation
   .ast/.asf automatically generated from VICON data using
   VICON BodyBuilder and BodyLanguage model FoxedUp or BRILLIANT.MOD
:root
   order TX TY TZ RX RY RZ
   axis XYZ
   position 0 0 0  
   orientation 0 0 0 
:bonedata
  begin
     id 1 
     name lhipjoint
     direction 0.575328 -0.747301 0.332475 
     length 2.40933 
     axis 0 0 0  XYZ
  end
  begin
     id 2 
     name lfemur
     direction 0.34202 -0.939693 0  
     length 7.31453  
     axis 0 0 20  XYZ
    dof rx ry rz
    limits (-160.0 20.0)
           (-70.0 70.0)
           (-60.0 70.0)
  end
  begin
     id 3 
     name ltibia
     direction 0.34202 -0.939693 0   
     length 7.82185   
     axis 0 0 20   XYZ
    dof rx
    limits (-10.0 170.0)
  end
  begin
     id 4 
     name lfoot
     direction 0.0795993 -0.218697 0.972541   
     length 2.19173   
     axis -90 7.62852e-016 20   XYZ
    dof rx rz
    limits (-45.0 90.0)
           (-70.0 20.0)
  end
  begin
     id 5 
     name ltoes
     direction 1.53537e-011 -4.21894e-011 1   
     length 1.10023   
     axis -90 7.62852e-016 20   XYZ
    dof rx
    limits (-90.0 20.0)
  end
  begin
     id 6 
     name rhipjoint
     direction -0.513884 -0.783789 0.348708   
     length 2.29716  
     axis 0 0 0  XYZ 
  end
  begin
     id 7 
     name rfemur
     direction -0.34202 -0.939693 0   
     length 7.59573   
     axis 0 0 -20   XYZ
    dof rx ry rz
    limits (-160.0 20.0)
           (-70.0 70.0)
           (-70.0 60.0)
  end
  begin
     id 8 
     name rtibia
     direction -0.34202 -0.939693 0   
     length 7.66402   
     axis 0 0 -20   XYZ
    dof rx
    limits (-10.0 170.0)
 end
 begin
     id 9 
     name rfoot
     direction -0.137793 -0.378584 0.915253   
     length 2.27056  
     axis -90 -7.62852e-016 -20   XYZ
    dof rx rz
    limits (-45.0 90.0)
           (-20.0 70.0)
  end
  begin
     id 10 
     name rtoes
     direction -1.53493e-011 -4.22159e-011 1   
     length 1.11766   
     axis -90 -7.62852e-016 -20   XYZ
    dof rx
    limits (-90.0 20.0)
  end
  begin
     id 11 
     name lowerback
     direction -0.00732775 0.998356 -0.05685   
     length 2.16513   
     axis 0 0 0   XYZ
    dof rx ry rz
    limits (-20.0 45.0)
           (-30.0 30.0)
           (-30.0 30.0)
  end
  begin
     id 12 
     name upperback
     direction 0.0218081 0.999627 -0.0164647   
     length 2.16755   
     axis 0 0 0   XYZ
    dof rx ry rz
    limits (-20.0 45.0)
           (-30.0 30.0)
           (-30.0 30.0)
  end
  begin
     id 13 
     name thorax
     direction 0.02365 0.999661 0.0108914   
     length 2.16932   
     axis 0 0 0   XYZ
    dof rx ry rz
    limits (-20.0 45.0)
           (-30.0 30.0)
           (-30.0 30.0)
  end
  begin
     id 14 
     name lowerneck
     direction -0.0523929 0.978385 0.200044   
     length 1.63877   
     axis 0 0 0   XYZ
    dof rx ry rz
    limits (-20.0 45.0)
           (-30.0 30.0)
           (-30.0 30.0)
  end
  begin
     id 15 
     name upperneck
     direction 0.0448674 0.981321 -0.187074   
     length 1.69014   
     axis 0 0 0   XYZ
    dof rx ry rz
    limits (-20.0 45.0)
           (-30.0 30.0)
           (-30.0 30.0)
  end
  begin
     id 16
     name head
     direction 0.0199089 0.996118 -0.0857429  
     length 1.70094  
     axis 0 0 0   XYZ
    dof rx ry rz
    limits (-20.0 45.0)
           (-30.0 30.0)
           (-30.0 30.0)
  end
  begin
     id 17 
     name lclavicle
     direction 0.940366 0.30191 -0.156722  
     length 3.37521  
     axis 0 0 0   XYZ
    dof ry rz
    limits (-20.0 10.0)
           (0.0 20.0)
  end
  begin
     id 18 
     name lhumerus
     direction 1 -4.4897e-011 -1.7911e-027   
     length 5.25287   
     axis 180 -30 -90   XYZ
    dof rx ry rz
    limits (-60.0 90.0)
           (-90.0 90.0)
           (-90.0 90.0)
  end
  begin
     id 19
     name lradius
     direction 1 -4.48951e-011 1.04424e-027   
     length 3.51014   
     axis 180 -30 -90   XYZ
    dof rx
    limits (-10.0 170.0)
  end
  begin
     id 20
     name lwrist
     direction 1 -4.48997e-011 -9.5942e-028   
     length 1.75507   
     axis 8.48502e-016 90 90   XYZ
    dof ry
    limits (-180.0 0.0)
 end
  begin
     id 21 
     name lhand
     direction 1 -4.48831e-011 -1.90777e-027   
     length 0.706179   
     axis 1.22306e-015 90 90   XYZ
    dof rx rz
    limits (-90.0 90.0)
           (-45.0 45.0)
  end
  begin
     id 22 
     name lfingers
     direction 1 -4.49108e-011 -3.85244e-027   
     length 0.569339   
     axis 2.44611e-015 90 90   XYZ
    dof rx
    limits (0.0 90.0)
  end
  begin
     id 23
     name lthumb
     direction 0.707107 -6.34953e-011 0.707107   
     length 0.817461   
     axis -90 45 -1.62303e-014   XYZ
    dof rx rz
    limits (-45.0 45.0)
           (-45.0 45.0)
  end
  begin
     id 24 
     name rclavicle
     direction -0.905329 0.382405 -0.184787   
     length 3.30787  
     axis 0 0 0   XYZ 
    dof ry rz
    limits (-10.0 20.0)
           (-20.0 0.0)
  end
  begin
     id 25 
     name rhumerus
     direction -1 -4.48953e-011 -9.15316e-029  
     length 5.28721   
     axis 180 30 90   XYZ
    dof rx ry rz
    limits (-90.0 60.0)
           (-90.0 90.0)
           (-90.0 90.0)
  end
  begin
     id 26 
     name rradius
     direction -1 -4.48987e-011 9.37824e-028   
     length 3.50544   
     axis 180 30 90   XYZ
    dof rx
    limits (-10.0 170.0)
  end
  begin
     id 27 
     name rwrist
     direction -1 -4.48967e-011 -9.58414e-028   
     length 1.75272   
     axis 8.48502e-016 -90 -90   XYZ
    dof ry
    limits (-180.0 0.0)
  end
  begin
     id 28
     name rhand
     direction -1 -4.48904e-011 -1.91266e-027   
     length 0.884996   
     axis 1.22306e-015 -90 -90   XYZ
    dof rx rz
    limits (-90.0 90.0)
           (-45.0 45.0)
  end
  begin
     id 29
     name rfingers
     direction -1 -4.4909e-011 -3.85015e-027   
     length 0.713507   
     axis 2.44611e-015 -90 -90   XYZ
    dof rx
    limits (0.0 90.0)
  end
  begin
     id 30
     name rthumb
     direction -0.707107 -6.34853e-011 0.707107   
     length 1.02446   
     axis -90 -45 1.62303e-014   XYZ
    dof rx rz
    limits (-45.0 45.0)
           (-45.0 45.0)
  end
:hierarchy
  begin
    root lhipjoint rhipjoint lowerback
    lhipjoint lfemur
    lfemur ltibia
    ltibia lfoot
    lfoot ltoes
    rhipjoint rfemur
    rfemur rtibia
    rtibia rfoot
    rfoot rtoes
    lowerback upperback
    upperback thorax
    thorax lowerneck lclavicle rclavicle
    lowerneck upperneck
    upperneck head
    lclavicle lhumerus
    lhumerus lradius
    lradius lwrist
    lwrist lhand lthumb
    lhand lfingers
    rclavicle rhumerus
    rhumerus rradius
    rradius rwrist
    rwrist rhand rthumb
    rhand rfingers
  end

#!OML:ASF F:\twosubjects\two\Thursday\Session 1\justin.ASF
:FULLY-SPECIFIED
:DEGREES
33
root 7.37228 9.35804 -21.4404 -24.5607 -2.43969 0.40586
lowerback 37.2775 1.38225 -1.62837
upperback 15.5754 1.19432 1.385
thorax -1.39783 0.415261 1.90613
lowerneck -18.7119 -6.32517 -12.5807
upperneck 3.27472 -6.77235 13.4271
head 4.91714 -2.70924 5.63205
rclavicle 3.97569e-015 7.95139e-016
rhumerus 21.5882 36.8081 -71.657
rradius 62.182
rwrist 8.37479
rhand 12.2002 5.75126
rfingers 7.12502
rthumb 37.2101 -20.2586
lclavicle 3.97569e-015 7.95139e-016
lhumerus 23.1086 -36.5167 71.9652
lradius 59.5948
lwrist -39.9427
lhand 19.4473 36.674
lfingers 7.12502
lthumb 44.0198 60.5494
rfemur -68.4637 -17.557 7.36417
rtibia 87.0438
rfoot 6.07099 4.46353
rtoes -8.79425
lfemur -67.8225 18.9354 -5.15167
ltibia 89.0265
lfoot 2.41134 -17.8237
ltoes -6.07095
34
root 7.37335 9.35858 -21.4423 -24.5913 -2.38707 0.438325
lowerback 37.2884 1.39908 -1.68161
upperback 15.5618 1.19816 1.38268
thorax -1.41688 0.415184 1.92994
lowerneck -18.2902 -6.57216 -12.9418
upperneck 2.84128 -7.08306 13.9125
head 4.79661 -2.85737 5.81858
rclavicle 5.66536e-015 1.19271e-014
rhumerus 21.6552 36.8412 -71.5594
rradius 62.0402
rwrist 8.33069
rhand 11.9657 5.85779
rfingers 7.12502
rthumb 36.9883 -20.2097
lclavicle 5.66536e-015 1.19271e-014
lhumerus 23.0606 -36.592 71.8895
lradius 59.7443
lwrist -39.8711
lhand 19.5312 36.8402
lfingers 7.12502
lthumb 44.0981 60.6864
rfemur -68.451 -17.6955 7.35195
rtibia 87.0561
rfoot 6.07173 4.55729
rtoes -8.90037
lfemur -67.8018 18.8823 -5.21443
ltibia 89.0275
lfoot 2.05145 -17.9326
ltoes -8.45878
35
root 7.37497 9.35875 -21.4428 -24.5885 -2.43416 0.37461
lowerback 37.1989 1.41678 -1.64049
upperback 15.6206 1.23679 1.42256
thorax -1.32653 0.433198 1.93909
lowerneck -17.7661 -6.90977 -13.2548
upperneck 2.12089 -7.49536 14.1971
head 4.57622 -3.07426 5.92134
rclavicle 5.96354e-015 7.35503e-015
rhumerus 21.6888 36.7394 -71.5204
rradius 61.9913
rwrist 8.39256
rhand 11.6571 5.75744
rfingers 7.12502
rthumb 36.6963 -20.3849
lclavicle 5.96354e-015 7.35503e-015
lhumerus 23.0817 -36.4921 71.9558
lradius 59.8092
lwrist -40.04
lhand 19.6652 36.7416
lfingers 7.12502
lthumb 44.2231 60.5408
rfemur -68.4665 -17.7316 7.47021
rtibia 87.0595
rfoot 6.06676 4.5986
rtoes -9.07088
lfemur -67.8056 18.9092 -5.13334
ltibia 89.0358
lfoot 2.04119 -17.8882
ltoes -9.30028
36
root 7.37478 9.35727 -21.4418 -24.5667 -2.45673 0.336809
lowerback 37.0865 1.4262 -1.61647
upperback 15.6999 1.25829 1.4325
thorax -1.2049 0.443118 1.93204
lowerneck -17.18 -7.28652 -13.7186
upperneck 1.27694 -7.94606 14.7055
head 4.33679 -3.30482 6.12113
rclavicle 2.38542e-015 -2.38542e-015
rhumerus 21.6156 36.5485 -71.6372
rradius 62.07
rwrist 8.57747
rhand 11.4981 5.55379
rfingers 7.12502
rthumb 36.5458 -20.6267
lclavicle 2.38542e-015 -2.38542e-015
lhumerus 23.213 -36.3237 71.9395
lradius 59.732
lwrist -40.0733
lhand 19.2069 36.5707
lfingers 7.12502
lthumb 43.7955 60.5294
rfemur -68.4893 -17.7073 7.51467
rtibia 87.0645
rfoot 6.06828 4.53981
rtoes -9.00719
lfemur -67.8408 18.9213 -5.06459
ltibia 89.0472
lfoot 2.84663 -17.7056
ltoes -5.75219
37
root 7.37354 9.35861 -21.4453 -24.5676 -2.38982 0.346948
lowerback 37.026 1.43277 -1.64612
upperback 15.7657 1.25731 1.40672
thorax -1.11313 0.441688 1.92226
lowerneck -16.5984 -7.62448 -13.9899
upperneck 0.51491 -8.38756 15.1554
head 4.11662 -3.53374 6.27313
rclavicle -5.96354e-015 -9.34288e-015
rhumerus 21.7403 36.4693 -71.604
rradius 61.9949
rwrist 8.62269
rhand 11.5859 5.74086
rfingers 7.12502
rthumb 36.629 -20.4186
lclavicle -5.96354e-015 -9.34288e-015
lhumerus 23.4322 -36.1662 71.8759
lradius 59.5573
lwrist -39.8853
lhand 18.438 36.557
lfingers 7.12502
lthumb 43.0773 60.7756
rfemur -68.4342 -17.6707 7.42575
rtibia 87.0421
rfoot 6.00978 4.41155
rtoes -8.85964
lfemur -67.8466 18.8703 -5.10152
ltibia 89.0245
lfoot 3.2683 -17.6355
ltoes -3.60421
38
root 7.3733 9.35802 -21.4466 -24.5805 -2.30527 0.380897
lowerback 37.0131 1.43605 -1.67413
upperback 15.752 1.25014 1.32626
thorax -1.12148 0.441845 1.85507
lowerneck -16.0568 -8.00322 -13.7727
upperneck 0.07418 -8.97063 15.1449
head 3.97306 -3.84807 6.17795
rclavicle -5.76476e-015 -1.78906e-015
rhumerus 21.7031 36.4838 -71.6797
rradius 61.9959
rwrist 8.38238
rhand 11.6457 5.80596
rfingers 7.12502
rthumb 36.6855 -20.3392
lclavicle -5.76476e-015 -1.78906e-015
lhumerus 23.496 -36.2056 71.8161
lradius 59.5017
lwrist -39.6569
lhand 17.7561 37.0335
lfingers 7.12502
lthumb 42.4393 61.4746
rfemur -68.3999 -17.7237 7.33163
rtibia 87.0038
rfoot 6.03075 4.41402
rtoes -8.55414
lfemur -67.8498 18.8107 -5.20342
ltibia 89.0053
lfoot 3.16675 -17.6535
ltoes -3.3139
39
root 7.3726 9.35847 -21.4486 -24.5768 -2.2977 0.449625
lowerback 37.0047 1.48562 -1.75993
upperback 15.7254 1.28117 1.27362
thorax -1.1485 0.456082 1.83451
lowerneck -15.9977 -8.55349 -13.5048
upperneck 0.114337 -9.76335 14.9205
head 4.05958 -4.25011 5.96772
rclavicle -8.15017e-015 -6.55989e-015
rhumerus 21.5569 36.465 -71.7918
rradius 62.113
rwrist 8.1532
rhand 11.2951 5.46924
rfingers 7.12502
rthumb 36.3536 -20.7596
lclavicle -8.15017e-015 -6.55989e-015
lhumerus 23.4451 -36.2991 71.8174
lradius 59.5231
lwrist -39.6865
lhand 17.3301 37.5251
lfingers 7.12502
lthumb 42.0403 62.1016
rfemur -68.4417 -17.7664 7.30425
rtibia 86.9695
rfoot 6.17154 4.50493
rtoes -8.51464
lfemur -67.8544 18.8024 -5.2774
ltibia 89.0047
lfoot 3.13221 -17.5989
ltoes -2.64836
40
root 7.37231 9.36263 -21.4524 -24.57 -2.31689 0.387288
lowerback 37.0239 1.48761 -1.72625
upperback 15.718 1.29519 1.29227
thorax -1.1634 0.463898 1.83155
lowerneck -16.0674 -9.13669 -13.7957
upperneck 0.211915 -10.5199 15.1903
head 4.23936 -4.60813 6.00396
rclavicle 8.94531e-015 5.96354e-016
rhumerus 21.5477 36.4429 -71.7509
rradius 62.1742
rwrist 8.08558
rhand 11.2993 5.34637
rfingers 7.12502
rthumb 36.3576 -20.8815
lclavicle 8.94531e-015 5.96354e-016
lhumerus 23.3792 -36.2602 71.8704
lradius 59.5732
lwrist -39.7675
lhand 17.6052 37.8167
lfingers 7.12502
lthumb 42.298 62.3061
rfemur -68.4311 -17.7769 7.40746
rtibia 86.9689
rfoot 6.16977 4.48554
rtoes -8.79968
lfemur -67.8667 18.777 -5.18221
ltibia 89.0077
lfoot 3.21901 -17.558
ltoes -2.59937
41
root 7.37245 9.3617 -21.4486 -24.577 -2.34981 0.274429
lowerback 37.0433 1.44551 -1.59166
upperback 15.6961 1.28608 1.27546
thorax -1.19086 0.467702 1.74624
lowerneck -15.6577 -9.59241 -14.3862
upperneck -0.0516562 -11.109 15.9001
head 4.26666 -4.89066 6.26395
rclavicle -8.24956e-015 -1.31198e-014
rhumerus 21.4582 36.3748 -71.8173
rradius 62.2392
rwrist 8.08196
rhand 11.7184 5.48813
rfingers 7.12502
rthumb 36.7543 -20.6395
lclavicle -8.24956e-015 -1.31198e-014
lhumerus 23.2976 -36.0618 71.9738
lradius 59.5826
lwrist -39.81
lhand 18.4872 37.5482
lfingers 7.12502
lthumb 43.1233 61.7505
rfemur -68.4221 -17.7982 7.54056
rtibia 87.0087
rfoot 6.04241 4.4568
rtoes -8.67378
lfemur -67.8661 18.8104 -5.04542
ltibia 89.0154
lfoot 3.22424 -17.6457
ltoes -3.27406
42
root 7.37298 9.35878 -21.4431 -24.5551 -2.37677 0.265623
lowerback 36.9641 1.464 -1.59467
upperback 15.6966 1.30844 1.25982
thorax -1.16542 0.479389 1.72515
lowerneck -14.9743 -9.991 -14.7124
upperneck -0.653757 -11.6548 16.3545
head 4.11455 -5.18098 6.41686
rclavicle -7.95139e-016 3.18055e-015
rhumerus 21.3765 36.291 -71.9044
rradius 62.2448
rwrist 8.07748
rhand 11.9537 5.6501
rfingers 7.12502
rthumb 36.9769 -20.4203
lclavicle -7.95139e-016 3.18055e-015
lhumerus 23.2761 -35.7852 72.1237
lradius 59.5145
lwrist -39.8156
lhand 19.1956 36.6883
lfingers 7.12502
lthumb 43.785 60.6509
rfemur -68.4646 -17.7982 7.54316
rtibia 87.0355
rfoot 6.02341 4.4847
rtoes -8.19224
lfemur -67.893 18.8639 -5.03882
ltibia 89.0282
lfoot 3.23546 -17.6802
ltoes -3.3679
43
root 7.37425 9.3599 -21.4429 -24.5425 -2.31833 0.310429
lowerback 36.9187 1.49841 -1.69324
upperback 15.6886 1.32076 1.2625
thorax -1.16138 0.480623 1.77587
lowerneck -14.5255 -10.387 -15.0525
upperneck -1.02378 -12.1891 16.8048
head 4.07245 -5.45351 6.5624
rclavicle -6.4605e-015 -7.7526e-015
rhumerus 21.3085 36.2242 -71.9724
rradius 62.1526
rwrist 8.21793
rhand 11.9605 5.86323
rfingers 7.12502
rthumb 36.9834 -20.2055
lclavicle -6.4605e-015 -7.7526e-015
lhumerus 23.2494 -35.7357 72.2049
lradius 59.4912
lwrist -39.737
lhand 19.3807 36.8872
lfingers 7.12502
lthumb 43.9577 60.7858
rfemur -68.4378 -17.8446 7.43835
rtibia 87.0345
rfoot 6.07965 4.51714
rtoes -8.03959
lfemur -67.9134 18.8019 -5.12714
ltibia 89.0265
lfoot 3.25308 -17.4825
ltoes -3.22015
44
root 7.37494 9.36027 -21.4418 -24.5994 -2.25113 0.38947
lowerback 37.0158 1.50428 -1.77357
upperback 15.6646 1.29692 1.19282
thorax -1.21656 0.468871 1.75121
lowerneck -14.3636 -10.7343 -15.5572
upperneck -1.11208 -12.6409 17.5045
head 4.1846 -5.65935 6.8106
rclavicle -4.67144e-015 2.5842e-015
rhumerus 21.1302 36.145 -72.1799
rradius 62.153
rwrist 8.2712
rhand 11.9362 5.83907
rfingers 7.12502
rthumb 36.9603 -20.2356
lclavicle -4.67144e-015 2.5842e-015
lhumerus 23.1937 -35.7579 72.1841
lradius 59.5038
lwrist -39.7128
lhand 19.3881 37.5672
lfingers 7.12502
lthumb 43.9646 61.4633
rfemur -68.3717 -17.912 7.32091
rtibia 87.0374
rfoot 6.10404 4.58403
rtoes -8.43779
lfemur -67.8332 18.7546 -5.24333
ltibia 89.0201
lfoot 3.10263 -17.3446
ltoes -2.96645
45
root 7.37475 9.35881 -21.4411 -24.6557 -2.28945 0.295825
lowerback 37.0424 1.4873 -1.68743
upperback 15.716 1.30234 1.1788
thorax -1.16757 0.475692 1.69007
lowerneck -14.0366 -11.0865 -15.8427
upperneck -1.52112 -13.1103 17.9908
head 4.14954 -5.89631 6.96212
rclavicle 2.38542e-015 -1.61016e-014
rhumerus 21.0867 36.0737 -72.2611
rradius 62.2063
rwrist 8.11626
rhand 12.0947 5.72307
rfingers 7.12502
rthumb 37.1103 -20.3128
lclavicle 2.38542e-015 -1.61016e-014
lhumerus 23.2456 -35.7592 71.9699
lradius 59.7195
lwrist -39.6
lhand 19.6963 37.6391
lfingers 7.12502
lthumb 44.2521 61.4273
rfemur -68.3208 -17.9136 7.43703
rtibia 87.0353
rfoot 6.07253 4.5548
rtoes -8.55705
lfemur -67.7717 18.7855 -5.1322
ltibia 89.0231
lfoot 3.05538 -17.3584
ltoes -2.23334
46
root 7.37409 9.35966 -21.444 -24.6604 -2.34788 0.182315
lowerback 36.9965 1.49622 -1.60104
upperback 15.746 1.34213 1.17702
thorax -1.12032 0.499489 1.63109
lowerneck -13.6 -11.4853 -16.1026
upperneck -1.81929 -13.6811 18.5264
head 4.15491 -6.1865 7.11217
rclavicle -9.24349e-015 5.96354e-016
rhumerus 20.9775 35.9457 -72.4245
rradius 62.2179
rwrist 8.22441
rhand 12.2534 5.81854
rfingers 7.12502
rthumb 37.2604 -20.1782
lclavicle -9.24349e-015 5.96354e-016
lhumerus 23.3413 -35.9466 71.6107
lradius 59.9939
lwrist -39.3438
lhand 19.8587 37.7917
lfingers 7.12502
lthumb 44.4035 61.5225
rfemur -68.2921 -17.8424 7.57272
rtibia 87.0227
rfoot 6.00979 4.41798
rtoes -8.29634
lfemur -67.7722 18.824 -4.99445
ltibia 89.0082
lfoot 3.15221 -17.3673
ltoes -2.21299
